<svg aria-hidden="true" xmlns="http://www.w3.org/2000/svg" viewBox="0 0 592 467">
    <path d="M51.744,466.316C51.744,466.316 3.279,467.859 0,412.978L0,367.614C0,367.614 8.893,249.249 124.232,249.249C126.688,249.249 148.895,267.707 191.409,268.07C233.923,267.707 256.13,249.249 258.587,249.249C373.925,249.249 382.531,374.962 382.531,374.962L382.742,404.539C379.463,459.42 331.074,466.316 331.074,466.316L51.744,466.316ZM314.303,250.323C329.491,240.55 335.182,239.058 360.712,239.058C362.906,239.058 382.743,255.545 420.718,255.87C458.693,255.545 478.53,239.058 480.724,239.058C583.75,239.058 591.694,344.787 591.694,344.787L591.694,385.309C588.765,434.331 545.473,432.953 545.473,432.953L391.011,432.953C393.001,427.304 396.55,407.123 397.011,399.401L396.886,376.697C396.886,376.697 390.198,274.5 314.303,250.323ZM191.409,0C249.095,0 295.928,46.834 295.928,104.519C295.928,162.205 249.095,209.039 191.409,209.039C133.723,209.039 86.89,162.205 86.89,104.519C86.89,46.834 133.723,0 191.409,0ZM420.718,38.944C465.332,38.944 501.552,75.164 501.552,119.778C501.552,164.392 465.332,200.613 420.718,200.613C376.104,200.613 339.884,164.392 339.884,119.778C339.884,75.164 376.104,38.944 420.718,38.944Z"/>
</svg>