<svg viewBox="0 0 2113 1220" xmlns="http://www.w3.org/2000/svg" fill-rule="evenodd" clip-rule="evenodd" stroke-linejoin="round" stroke-miterlimit="2">
    <path fill="currentColor" d="M246.388 0s217.798 100.789 399.846 123.626c101.967 12.791 181.543 7.356 319.992-11.503L679.5 255s-71.832 58.517-45.543 113.845c26.29 55.328 55.712 104.788 167.403 86.054 111.691-18.735 193.27-92.484 287.218-88.93 93.947 3.554 175.429 145.136 175.429 145.136S1436.749 732.1 1498.5 918.033c0 0 15.423 102.357-40.627 122.162-56.051 19.805-61.029 13.326-61.029 13.326l-142.609-233.106c-4.301-9.2-48.204-12.365-37.002 30.118l138.104 230.235s-31.798 75.413-136.033 41.002l-123.945-189.879c-4.15-7.864-40.955-22.694-42.073 17.397l125.347 195.995s-17.828 91.665-117.956 29.353c0 0-79.078-126.678-95.059-155.947-2.221-4.067-33.033-22.401-43.955 13.386l-20.834-9.166s12.725-145.605-174.619-118.695c0 0-47.675-192.18-251.315-114.941 0 0-32.336-210.268-178.686-147.497 0 0-108.808-133.849-296.209-178.195L246.388 0z"/>
    <path fill="currentColor" d="M1928.07 57.463s-200.836 99.011-427.622 65.671c0 0-183.318-55.82-209.764-54.064-26.446 1.756-119.087-1.327-192.224 36.671-73.138 37.997-370.23 182.301-370.23 182.301s-72.988 35.764-48.725 78.765c0 0 20.256 21.931 37.812 36.24 11.201 9.129 43.649 13.329 71.567 8.538 0 0 89.318-29.165 194.747-74.098 62.658-26.703 136.633-21.767 189.107 2.673 0 0 229.95 201.77 361.934 550.552 0 0 246.72-137.287 359.838-271.513 0 0 74.518-74.472 218.245-127.779 0 0-100.871-181.968-184.685-433.957zM311.681 687.76s61.16-30.4 93.269 34.199c0 0 40.163 60.685 10.607 109.517 0 0-14.199 24.599-67.656 18.393 0 0-48.444-12.212-72.484-85.259 0 0-9.299-51.98 36.264-76.85zM456.381 850.873s115.902-60.943 171.34-16.926c0 0 58.171 44.913 50.937 97.141-.684 4.938-6.855 14.709-24.35 24.191-26.272 14.239-87.598 53.43-136.407 61.754 0 0-38.677 7.851-67.22-33.161 0 0-47.709-77.307 5.7-132.999zM605.82 1031.79c20.565-35.923 102.22-127.336 226.535-68.307 0 0 39.682 26.106 14.765 79.013 0 0-9.458 27.139-50.141 48.41 0 0-87.48 49.001-151.311 36.379-4.496-.889-79.868-25.589-39.848-95.495zM724.5 1163.22s116.223-11.697 161.626-91.836c0 0 32.904-1.81 36.128 34.555 2.515 28.371-51.661 126.597-152.69 112.245 0 0-44.578-9.41-45.064-54.964zM914.383 1210.23s47.423-34.422 55.192-97.431c0 0 7.978 22.858 45.175 73.583 0 0-44.828 55.201-100.367 23.848z"/>
</svg>