<svg viewBox="0 0 800 800" xmlns="http://www.w3.org/2000/svg" fill-rule="evenodd" clip-rule="evenodd" stroke-linejoin="round" stroke-miterlimit="1.414">
  <path d="M205.702 132.84V84.266h582.894v48.574H205.702zm0 291.447v-48.574h582.894v48.574H205.702zm0 291.447V667.16h582.894v48.574H205.702zM11.404 108.553c0-33.419 15.204-48.574 48.575-48.574 33.37 0 48.574 15.204 48.574 48.574 0 33.371-15.204 48.575-48.574 48.575-33.371 0-48.575-15.204-48.575-48.575zm0 291.447c0-33.419 15.204-48.574 48.575-48.574 33.37 0 48.574 15.203 48.574 48.574 0 33.371-15.204 48.574-48.574 48.574-33.371 0-48.575-15.203-48.575-48.574zm0 291.447c0-33.419 15.204-48.575 48.575-48.575 33.37 0 48.574 15.204 48.574 48.575 0 33.37-15.204 48.574-48.574 48.574-33.371 0-48.575-15.204-48.575-48.574z" fill-rule="nonzero"/>
</svg>
