<svg viewBox="0 0 800 800" xmlns="http://www.w3.org/2000/svg" fill-rule="evenodd" clip-rule="evenodd" stroke-linejoin="round" stroke-miterlimit="1.414">
  <path d="M96.41 314.995c55.658 0 85.005 29.347 85.005 85.005 0 55.658-29.347 85.005-85.005 85.005-55.659 0-85.006-29.347-85.006-85.005 0-55.658 29.347-85.005 85.006-85.005zm607.18 0c55.659 0 85.006 29.347 85.006 85.005 0 55.658-29.347 85.005-85.006 85.005-55.658 0-85.005-29.347-85.005-85.005 0-55.658 29.347-85.005 85.005-85.005zm-303.59 0c55.658 0 85.005 29.347 85.005 85.005 0 61.444-29.347 85.005-85.005 85.005-55.658 0-85.005-29.347-85.005-85.005 0-55.658 29.347-85.005 85.005-85.005z" fill-rule="nonzero"/>
</svg>
