<svg aria-hidden="true" viewBox="0 0 50 50" xmlns="http://www.w3.org/2000/svg" fill-rule="evenodd" clip-rule="evenodd" stroke-linejoin="round" stroke-miterlimit="1.414">
    <path fill="currentColor" d="M24.999 17.321c4.911 0 7.678 2.768 7.678 7.678 0 4.911-2.767 7.678-7.678 7.678-4.91 0-7.678-2.767-7.678-7.678 0-4.91 2.768-7.678 7.678-7.678zm21.317 5.335H50v4.688h-3.684C45.2 37.277 37.275 45.2 27.344 46.316V50h-4.688v-3.684C12.723 45.2 4.8 37.275 3.684 27.344H0v-4.688h3.684C4.8 12.723 12.725 4.8 22.656 3.684V0h4.688v3.684C37.277 4.8 45.2 12.725 46.316 22.656zM24.999 42.879c8.883 0 17.44-8.224 17.861-17.076.012-.267.019-.535.019-.804 0-9.151-8.728-17.88-17.88-17.88-9.151 0-17.88 8.729-17.88 17.88 0 9.152 8.729 17.88 17.88 17.88z" fill-rule="nonzero"/>
</svg>