<svg viewBox="0 0 800 800" xmlns="http://www.w3.org/2000/svg" fill-rule="evenodd" clip-rule="evenodd" stroke-linejoin="round" stroke-miterlimit="1.414">
  <path d="M501.633 565.296c-20.868 15.625-43.707 28.608-67.853 38.48-36.768 15.034-76.385 22.732-116.101 22.732-39.717 0-79.331-7.699-116.1-22.731-35.468-14.5-68.108-35.711-95.838-62.147-26.774-25.525-48.908-55.866-64.974-89.19a305.89 305.89 0 0 1-27.345-90.25c-4.695-33.509-3.854-67.8 2.519-101.032a305.533 305.533 0 0 1 26.467-78.41c15.373-30.909 35.982-59.166 60.68-83.281 24.72-24.136 53.486-44.084 84.789-58.708a305.728 305.728 0 0 1 83.06-25.187c14.175-2.169 28.447-3.245 42.779-3.517 3.97-.025 3.963-.025 7.926 0 14.331.272 28.603 1.348 42.778 3.517a305.707 305.707 0 0 1 83.062 25.187c32.417 15.147 62.107 36 87.407 61.297 24.42 24.416 44.703 52.934 59.701 84.041a305.75 305.75 0 0 1 26.18 82.624 309.624 309.624 0 0 1 1.165 93.472 305.97 305.97 0 0 1-27.345 90.247 307.505 307.505 0 0 1-30.885 50.784l223.922 223.922-62.072 62.072-223.922-223.922zM314.272 55.943c-12.294.234-24.538 1.156-36.698 3.016a261.784 261.784 0 0 0-71.118 21.566c-26.843 12.541-51.507 29.651-72.704 50.347-21.182 20.682-38.86 44.914-52.044 71.422a261.593 261.593 0 0 0-22.661 67.131c-5.467 28.508-6.185 57.929-2.158 86.675a261.898 261.898 0 0 0 23.416 77.279c13.777 28.577 32.762 54.594 55.722 76.482 23.774 22.664 51.754 40.857 82.161 53.288 31.511 12.882 65.455 19.467 99.491 19.467 34.034 0 67.98-6.583 99.489-19.467 30.406-12.432 58.39-30.621 82.161-53.287 22.959-21.891 41.946-47.905 55.724-76.483a262.045 262.045 0 0 0 23.416-77.282c4.03-28.742 3.307-58.168-2.16-86.672a261.619 261.619 0 0 0-21.256-64.266c-12.86-26.674-30.258-51.127-51.198-72.064-21.697-21.694-47.154-39.581-74.954-52.57a261.75 261.75 0 0 0-71.118-21.566c-12.16-1.86-24.403-2.782-36.697-3.016-3.42-.021-3.407-.021-6.814 0z"/>
</svg>
