<?xml version="1.0" encoding="UTF-8" standalone="no"?><!DOCTYPE svg PUBLIC "-//W3C//DTD SVG 1.1//EN" "http://www.w3.org/Graphics/SVG/1.1/DTD/svg11.dtd"><svg width="100%" height="100%" viewBox="0 0 80 15" version="1.1" xmlns="http://www.w3.org/2000/svg" xmlns:xlink="http://www.w3.org/1999/xlink" xml:space="preserve" xmlns:serif="http://www.serif.com/" style="fill-rule:evenodd;clip-rule:evenodd;stroke-linejoin:round;stroke-miterlimit:1.41421;"><path d="M0,13.315l0,-11.63l3.514,0l2.11,7.933l2.086,-7.933l3.523,0l0,11.63l-2.182,0l0,-9.155l-2.308,9.155l-2.261,0l-2.301,-9.155l0,9.155l-2.181,0Z" style="fill:#f2910a;fill-rule:nonzero;"/><path d="M16.619,13.315l0,-4.895l-4.26,-6.735l2.753,0l2.736,4.601l2.681,-4.601l2.706,0l-4.276,6.751l0,4.879l-2.34,0Z" style="fill:#f2910a;fill-rule:nonzero;"/><rect x="23.235" y="7.984" width="4.379" height="2.229" style="fill:#f2910a;fill-rule:nonzero;"/><path d="M28.906,1.685l4.292,0c0.968,0 1.705,0.074 2.213,0.223c0.682,0.2 1.267,0.557 1.753,1.07c0.487,0.513 0.857,1.141 1.111,1.884c0.254,0.743 0.38,1.66 0.38,2.749c0,0.957 -0.119,1.782 -0.357,2.475c-0.29,0.846 -0.706,1.531 -1.245,2.055c-0.407,0.396 -0.957,0.706 -1.65,0.928c-0.518,0.164 -1.211,0.246 -2.078,0.246l-4.419,0l0,-11.63Zm2.348,1.968l0,7.702l1.753,0c0.656,0 1.13,-0.037 1.42,-0.111c0.381,-0.095 0.697,-0.256 0.948,-0.484c0.252,-0.227 0.456,-0.601 0.615,-1.122c0.159,-0.521 0.238,-1.231 0.238,-2.13c0,-0.899 -0.079,-1.589 -0.238,-2.07c-0.159,-0.482 -0.381,-0.857 -0.666,-1.127c-0.286,-0.27 -0.648,-0.452 -1.087,-0.547c-0.328,-0.074 -0.97,-0.111 -1.928,-0.111l-1.055,0Z" style="fill:#f2910a;fill-rule:nonzero;"/><rect x="40.631" y="11.086" width="2.229" height="2.229" style="fill:#f2910a;fill-rule:nonzero;"/><path d="M44.684,7.571c0,-1.184 0.177,-2.178 0.532,-2.982c0.264,-0.593 0.625,-1.124 1.082,-1.595c0.458,-0.47 0.959,-0.819 1.504,-1.047c0.724,-0.307 1.56,-0.46 2.506,-0.46c1.714,0 3.085,0.532 4.113,1.595c1.029,1.063 1.543,2.541 1.543,4.434c0,1.877 -0.51,3.346 -1.531,4.406c-1.02,1.061 -2.385,1.591 -4.093,1.591c-1.729,0 -3.104,-0.528 -4.125,-1.583c-1.02,-1.055 -1.531,-2.508 -1.531,-4.359Zm2.42,-0.079c0,1.317 0.304,2.315 0.912,2.995c0.608,0.679 1.38,1.019 2.316,1.019c0.936,0 1.704,-0.337 2.305,-1.011c0.6,-0.675 0.9,-1.686 0.9,-3.035c0,-1.332 -0.292,-2.327 -0.877,-2.982c-0.584,-0.656 -1.36,-0.984 -2.328,-0.984c-0.968,0 -1.748,0.332 -2.34,0.996c-0.592,0.663 -0.888,1.664 -0.888,3.002Z" style="fill:#f2910a;fill-rule:nonzero;"/><path d="M57.805,13.315l0,-11.63l4.942,0c1.242,0 2.145,0.105 2.709,0.314c0.563,0.209 1.014,0.58 1.352,1.114c0.339,0.534 0.508,1.145 0.508,1.833c0,0.872 -0.257,1.593 -0.77,2.161c-0.513,0.569 -1.279,0.927 -2.3,1.075c0.508,0.296 0.927,0.622 1.257,0.976c0.331,0.354 0.776,0.984 1.337,1.888l1.42,2.269l-2.808,0l-1.698,-2.531c-0.603,-0.904 -1.015,-1.474 -1.237,-1.709c-0.223,-0.236 -0.458,-0.397 -0.706,-0.484c-0.249,-0.088 -0.643,-0.131 -1.182,-0.131l-0.476,0l0,4.855l-2.348,0Zm2.348,-6.711l1.737,0c1.126,0 1.83,-0.048 2.11,-0.143c0.28,-0.095 0.5,-0.259 0.658,-0.492c0.159,-0.233 0.238,-0.524 0.238,-0.873c0,-0.391 -0.104,-0.707 -0.313,-0.948c-0.209,-0.24 -0.504,-0.392 -0.884,-0.456c-0.191,-0.026 -0.762,-0.039 -1.714,-0.039l-1.832,0l0,2.951Z" style="fill:#f2910a;fill-rule:nonzero;"/><path d="M74.939,9.039l0,-1.959l5.061,0l0,4.632c-0.492,0.476 -1.204,0.895 -2.138,1.258c-0.933,0.362 -1.879,0.543 -2.836,0.543c-1.216,0 -2.276,-0.255 -3.181,-0.766c-0.904,-0.51 -1.584,-1.24 -2.038,-2.189c-0.455,-0.949 -0.683,-1.982 -0.683,-3.098c0,-1.211 0.254,-2.287 0.762,-3.228c0.508,-0.942 1.251,-1.663 2.229,-2.166c0.746,-0.386 1.674,-0.579 2.784,-0.579c1.444,0 2.572,0.303 3.384,0.908c0.811,0.606 1.334,1.443 1.566,2.511l-2.332,0.436c-0.164,-0.571 -0.472,-1.022 -0.924,-1.352c-0.452,-0.331 -1.017,-0.496 -1.694,-0.496c-1.026,0 -1.841,0.325 -2.447,0.976c-0.605,0.65 -0.908,1.615 -0.908,2.895c0,1.38 0.307,2.416 0.92,3.106c0.614,0.69 1.417,1.035 2.412,1.035c0.491,0 0.985,-0.097 1.479,-0.29c0.494,-0.193 0.919,-0.427 1.273,-0.702l0,-1.475l-2.689,0Z" style="fill:#f2910a;fill-rule:nonzero;"/></svg>