<svg id="Layer_1" viewBox="0 0 512 512" xmlns="http://www.w3.org/2000/svg">
    <path fill="#fff" d="M0 106.7h512v298.7H0z"/>
    <path fill="#bd0034" d="M342.8 214.7L512 119.9v-13.2h-11.7l-192.9 108zM334.8 303.4L512 402.5v-19.8l-141.8-79.3zM0 129.4l151.5 85.3H187L0 109.5zM178.9 303.4L0 403.6v1.8h32.3l182.1-102z"/>
    <path fill="#1a237b" d="M477 106.7H297.7v100.4zM218.5 106.7H40l178.5 100.4zM512 214.7v-68.6l-121.6 68.6zM512 371.1v-67.7H390.4zM50.1 405.4h168.4v-94.5zM297.7 405.4h168.9l-168.9-94.5zM0 303.4v70.8l125.8-70.8zM0 214.7h125.8L0 143.7z"/>
    <path fill="#bd0034" d="M234.4 106.7v125.7H0v53.2h234.4v119.8h47.5V285.6H512v-53.2H281.9V106.7z"/>
</svg>