<svg viewBox="0 0 2164 2164" width="500px" height="500px" xmlns="http://www.w3.org/2000/svg" xmlns:serif="http://www.serif.com/" fill-rule="evenodd" clip-rule="evenodd" stroke-linejoin="round" stroke-miterlimit="1.414">
  <path serif:id="Eurokey new" fill="none" d="M0 0h2163.11v2163.11H0z"/>
  <circle cx="1063.53" cy="1105.56" r="810.75" fill="url(#_Radial1)"/>
  <circle cx="1063.53" cy="1105.56" r="810.75" fill="url(#_Radial2)"/>
  <clipPath id="a">
    <path d="M635.997 631.228h802.279v900H635.997z"/>
  </clipPath>
  <g clip-path="url(#a)" fill="#fff">
    <path d="M904.94 791.378c41.445-3.762 73.645-38.862 73.645-79.918 0-44.19-36.663-80.232-81.615-80.232s-81.614 36.042-81.614 80.232c0 13.476 3.824 27.265 10.201 38.862l29.081 402.263 299.506.079 122.845 282.953 161.286-62.18-24.975-58.463-90.263 32.03-118.86-269.757-278.475 1.84-3.823-50.944 201.594.079v-75.376l-209.284-.08-9.249-161.388z"/>
    <path d="M1206.16 1368.28c-50.55 98.233-156.355 162.95-269.213 162.95-165.76 0-300.955-132.903-300.955-295.853 0-114.413 70.537-220.734 175.792-267.865l6.811 87.379c-62.255 38.565-100.633 108.148-100.633 181.085 0 118.209 98.074 214.619 218.321 214.619 110.012 0 203.822-82.996 216.614-189.468l53.263 107.153z"/>
  </g>
  <clipPath id="b">
    <path d="M635.997 631.228h802.279v900H635.997z"/>
  </clipPath>
  <g clip-path="url(#b)" fill="#fff">
    <path d="M904.94 791.378c41.445-3.762 73.645-38.862 73.645-79.918 0-44.19-36.663-80.232-81.615-80.232s-81.614 36.042-81.614 80.232c0 13.476 3.824 27.265 10.201 38.862l29.081 402.263 299.506.079 122.845 282.953 161.286-62.18-24.975-58.463-90.263 32.03-118.86-269.757-278.475 1.84-3.823-50.944 201.594.079v-75.376l-209.284-.08-9.249-161.388z"/>
    <path d="M1206.16 1368.28c-50.55 98.233-156.355 162.95-269.213 162.95-165.76 0-300.955-132.903-300.955-295.853 0-114.413 70.537-220.734 175.792-267.865l6.811 87.379c-62.255 38.565-100.633 108.148-100.633 181.085 0 118.209 98.074 214.619 218.321 214.619 110.012 0 203.822-82.996 216.614-189.468l53.263 107.153z"/>
  </g>
  <g serif:id="Ebene 2" fill="#fff" fill-rule="nonzero">
    <path d="M1269.43 827.466c-4.392.138-18.459-26.012-19.542-38.987 23.708-13.745 31.031-17.023 46.166-22.161 7.367 11.283 9.481 12.759 18.983 38.881-23.404 11.426-26.884 13.335-45.607 22.267m200.515 291.969c3.938-2.591 4.856-14.408 4.856-14.408l-86.769-171.629 9.904-8.723-25.058-52.757 52.572-32.355s4.42-6.171 3.656-13.822c-.764-7.652-11.99-55.001-52.731-108.001-4.655-.402 4.728-.971-10.51-.219 0 0-113.117 33.16-197.548 93.108-6.892 8.714-6.892 8.714-7.52 15.039-.628 6.326 10.645 58.333 52.731 108.002 8.565 3.843 6.309 2.269 13.292 2.872 6.982.603 56.381-21.509 56.381-21.509s2.018-4.998 5.709 2.562c3.692 7.56 23.43 49.508 23.43 49.508l12.274-.736s81.804 166.029 84.514 170.056c2.709 4.027 9.546 7.375 19.793 7.054 10.247-.322 37.088-21.452 41.024-24.042"/>
    <path d="M1269.43 827.466c-4.392.138-18.459-26.012-19.542-38.987 23.708-13.745 31.031-17.023 46.166-22.161 7.367 11.283 9.481 12.759 18.983 38.881-23.404 11.426-26.884 13.335-45.607 22.267m200.515 291.969c3.938-2.591 4.856-14.408 4.856-14.408l-86.769-171.629 9.904-8.723-25.058-52.757 52.572-32.355s4.42-6.171 3.656-13.822c-.764-7.652-11.99-55.001-52.731-108.001-4.655-.402 4.728-.971-10.51-.219 0 0-113.117 33.16-197.548 93.108-6.892 8.714-6.892 8.714-7.52 15.039-.628 6.326 10.645 58.333 52.731 108.002 8.565 3.843 6.309 2.269 13.292 2.872 6.982.603 56.381-21.509 56.381-21.509s2.018-4.998 5.709 2.562c3.692 7.56 23.43 49.508 23.43 49.508l12.274-.736s81.804 166.029 84.514 170.056c2.709 4.027 9.546 7.375 19.793 7.054 10.247-.322 37.088-21.452 41.024-24.042"/>
  </g>
  <defs>
    <radialGradient id="_Radial1" cx="0" cy="0" r="1" gradientUnits="userSpaceOnUse" gradientTransform="translate(733.597 507.301) scale(1578.27)">
      <stop offset="0" stop-color="#debb83"/>
      <stop offset="1" stop-color="#433d33"/>
    </radialGradient>
    <radialGradient id="_Radial2" cx="0" cy="0" r="1" gradientUnits="userSpaceOnUse" gradientTransform="translate(733.597 507.301) scale(1578.27)">
      <stop offset="0" stop-color="#debb83"/>
      <stop offset="1" stop-color="#433d33"/>
    </radialGradient>
  </defs>
</svg>
