<svg viewBox="0 0 2164 2164" xmlns="http://www.w3.org/2000/svg" fill-rule="evenodd" clip-rule="evenodd" stroke-linejoin="round" stroke-miterlimit="1.414">
  <path fill="none" d="M0 0h2163.11v2163.11H0z"/>
  <circle cx="1080.82" cy="1095.84" r="810.75" fill="url(#_Radial1)"/>
  <circle cx="1080.82" cy="1095.84" r="810.75" fill="url(#_Radial2)"/>
  <g fill="#fff">
    <path d="M945.171 1004.16l-188.341 82.313c-86.944 42.077-43.542 138.897-9.974 192.84 14.415 23.202 10.511 53.344-9.339 72.108l.009.009a58.247 58.247 0 0 1-87.797-9.021C454.802 1063.608 780.474 942.477 780.59 942.416l796.847-326.101 21.595 21.358a687.97 687.97 0 0 1 52.8 77.294l-131.327 53.744v802.646a689.874 689.874 0 0 1-120 87.369V817.819l120-49.108-120 49.108-335.334 137.232v794.522c-2.066.019-4.137.029-6.209.029-38.762 0-76.779-3.217-113.791-9.4V1004.16l120-49.109-120 49.109z"/>
    <path d="M945.171 1004.16l-188.341 82.313c-86.944 42.077-43.542 138.897-9.974 192.84 14.415 23.202 10.511 53.344-9.339 72.108l.009.009a58.247 58.247 0 0 1-87.797-9.021C454.802 1063.608 780.474 942.477 780.59 942.416l796.847-326.101 21.595 21.358a687.97 687.97 0 0 1 52.8 77.294l-131.327 53.744v802.646a689.874 689.874 0 0 1-120 87.369V817.819l120-49.108-120 49.108-335.334 137.232v794.522c-2.066.019-4.137.029-6.209.029-38.762 0-76.779-3.217-113.791-9.4V1004.16l120-49.109-120 49.109z"/>
  </g>
  <defs>
    <radialGradient id="_Radial1" cx="0" cy="0" r="1" gradientUnits="userSpaceOnUse" gradientTransform="translate(750.881 497.585) scale(1578.27)">
      <stop offset="0" stop-color="#8e95bf"/>
      <stop offset="1" stop-color="#4f69ff"/>
    </radialGradient>
    <radialGradient id="_Radial2" cx="0" cy="0" r="1" gradientUnits="userSpaceOnUse" gradientTransform="translate(750.881 497.585) scale(1578.27)">
      <stop offset="0" stop-color="#8e95bf"/>
      <stop offset="1" stop-color="#4f69ff"/>
    </radialGradient>
  </defs>
</svg>
