<svg viewBox="0 0 2164 2164" xmlns="http://www.w3.org/2000/svg" xmlns:serif="http://www.serif.com/" fill-rule="evenodd" clip-rule="evenodd" stroke-linejoin="round" stroke-miterlimit="1.414">
  <path serif:id="IV Nette Toilette" fill="none" d="M0 0h2163.11v2163.11H0z"/>
  <circle cx="1082.62" cy="1048.85" r="764.627" fill="url(#_Radial1)"/>
  <circle cx="1082.62" cy="1048.85" r="764.627" fill="url(#_Radial2)"/>
  <clipPath id="a">
    <path d="M701.691 528.491H1542.4v943.111H701.691z"/>
  </clipPath>
  <g clip-path="url(#a)" fill="#fff">
    <path d="M983.517 696.313c43.431-3.942 77.173-40.724 77.173-83.746 0-46.307-38.42-84.076-85.525-84.076-47.105 0-85.524 37.769-85.524 84.076 0 14.121 4.008 28.571 10.691 40.723l30.473 421.532 313.853.083 128.73 296.507 169.011-65.159-26.171-61.263-94.586 33.564-124.554-282.678-291.815 1.927-4.006-53.383 211.251.082v-78.987l-219.31-.084-9.691-169.118z"/>
    <path d="M1299.17 1300.85c-52.972 102.938-163.845 170.756-282.108 170.756-173.701 0-315.372-139.269-315.372-310.025 0-119.893 73.916-231.308 184.212-280.697l7.138 91.566c-65.237 40.411-105.453 113.328-105.453 189.759 0 123.871 102.772 224.899 228.778 224.899 115.282 0 213.586-86.972 226.991-198.543l55.814 112.285z"/>
  </g>
  <clipPath id="b">
    <path d="M701.691 528.491H1542.4v943.111H701.691z"/>
  </clipPath>
  <g clip-path="url(#b)" fill="#fff">
    <path d="M983.517 696.313c43.431-3.942 77.173-40.724 77.173-83.746 0-46.307-38.42-84.076-85.525-84.076-47.105 0-85.524 37.769-85.524 84.076 0 14.121 4.008 28.571 10.691 40.723l30.473 421.532 313.853.083 128.73 296.507 169.011-65.159-26.171-61.263-94.586 33.564-124.554-282.678-291.815 1.927-4.006-53.383 211.251.082v-78.987l-219.31-.084-9.691-169.118z"/>
    <path d="M1299.17 1300.85c-52.972 102.938-163.845 170.756-282.108 170.756-173.701 0-315.372-139.269-315.372-310.025 0-119.893 73.916-231.308 184.212-280.697l7.138 91.566c-65.237 40.411-105.453 113.328-105.453 189.759 0 123.871 102.772 224.899 228.778 224.899 115.282 0 213.586-86.972 226.991-198.543l55.814 112.285z"/>
  </g>
  <g>
    <circle cx="1561.5" cy="541.297" r="286.741" fill="#c63021"/>
    <path d="M1558.97 430.292c0-48.595-39.453-88.048-88.048-88.048-48.596 0-88.049 39.453-88.049 88.048v24.839c0 48.596 39.453 88.049 88.049 88.049 48.595 0 88.048-39.453 88.048-88.049v-24.839z"/>
    <path d="M1558.97 430.292c0-48.595-39.453-88.048-88.048-88.048-48.596 0-88.049 39.453-88.049 88.048v24.839c0 48.596 39.453 88.049 88.049 88.049 48.595 0 88.048-39.453 88.048-88.049v-24.839zM1759.63 430.292c0-48.595-39.453-88.048-88.048-88.048-48.596 0-88.049 39.453-88.049 88.048v24.839c0 48.596 39.453 88.049 88.049 88.049 48.595 0 88.048-39.453 88.048-88.049v-24.839z"/>
    <path d="M1437.35 463.751V422.5c0-21.98 15.039-44.185 33.564-44.185 18.524 0 33.564 22.205 33.564 44.185v41.251c0 21.98-15.04 44.256-33.564 44.256-18.525 0-33.564-22.276-33.564-44.256z" fill="#fff"/>
    <path d="M1437.35 463.751V422.5c0-21.98 15.039-44.185 33.564-44.185 18.524 0 33.564 22.205 33.564 44.185v41.251c0 21.98-15.04 44.256-33.564 44.256-18.525 0-33.564-22.276-33.564-44.256zM1638.02 463.751V422.5c0-21.98 15.039-44.185 33.564-44.185 18.524 0 33.564 22.205 33.564 44.185v41.251c0 21.98-15.04 44.256-33.564 44.256-18.525 0-33.564-22.276-33.564-44.256z" fill="#fff"/>
    <path d="M1337.72 558.742s155.014 121.135 252.113 115.178c28.223-1.732 91.299-10.54 195.315-116.471 3.054-3.109-50.19 91.421-50.19 91.421s-61.798 92.403-140.116 91.474c-78.319-.928-232.254-143.309-257.122-181.602z"/>
    <g>
      <circle cx="1561.5" cy="541.297" r="286.741" fill="#c63021"/>
      <path d="M1558.97 430.292c0-48.595-39.453-88.048-88.048-88.048-48.596 0-88.049 39.453-88.049 88.048v24.839c0 48.596 39.453 88.049 88.049 88.049 48.595 0 88.048-39.453 88.048-88.049v-24.839z"/>
      <path d="M1558.97 430.292c0-48.595-39.453-88.048-88.048-88.048-48.596 0-88.049 39.453-88.049 88.048v24.839c0 48.596 39.453 88.049 88.049 88.049 48.595 0 88.048-39.453 88.048-88.049v-24.839zM1759.63 430.292c0-48.595-39.453-88.048-88.048-88.048-48.596 0-88.049 39.453-88.049 88.048v24.839c0 48.596 39.453 88.049 88.049 88.049 48.595 0 88.048-39.453 88.048-88.049v-24.839z"/>
      <path d="M1437.35 463.751V422.5c0-21.98 15.039-44.185 33.564-44.185 18.524 0 33.564 22.205 33.564 44.185v41.251c0 21.98-15.04 44.256-33.564 44.256-18.525 0-33.564-22.276-33.564-44.256z" fill="#fff"/>
      <path d="M1437.35 463.751V422.5c0-21.98 15.039-44.185 33.564-44.185 18.524 0 33.564 22.205 33.564 44.185v41.251c0 21.98-15.04 44.256-33.564 44.256-18.525 0-33.564-22.276-33.564-44.256zM1638.02 463.751V422.5c0-21.98 15.039-44.185 33.564-44.185 18.524 0 33.564 22.205 33.564 44.185v41.251c0 21.98-15.04 44.256-33.564 44.256-18.525 0-33.564-22.276-33.564-44.256z" fill="#fff"/>
      <path d="M1337.72 558.742s155.014 121.135 252.113 115.178c28.223-1.732 91.299-10.54 195.315-116.471 3.054-3.109-50.19 91.421-50.19 91.421s-61.798 92.403-140.116 91.474c-78.319-.928-232.254-143.309-257.122-181.602z"/>
    </g>
  </g>
  <defs>
    <radialGradient id="_Radial1" cx="0" cy="0" r="1" gradientUnits="userSpaceOnUse" gradientTransform="translate(789.831 624.144) scale(1097.81)">
      <stop offset="0" stop-color="#6fd584"/>
      <stop offset="1" stop-color="#00571d"/>
    </radialGradient>
    <radialGradient id="_Radial2" cx="0" cy="0" r="1" gradientUnits="userSpaceOnUse" gradientTransform="translate(789.831 624.144) scale(1097.81)">
      <stop offset="0" stop-color="#6fd584"/>
      <stop offset="1" stop-color="#00571d"/>
    </radialGradient>
  </defs>
</svg>
