<svg viewBox="0 0 2164 2164" xmlns="http://www.w3.org/2000/svg" xmlns:serif="http://www.serif.com/" fill-rule="evenodd" clip-rule="evenodd" stroke-linejoin="round" stroke-miterlimit="1.414">
  <path serif:id="IV new" fill="none" d="M0 0h2163.11v2163.11H0z"/>
  <circle cx="1066.92" cy="1081.56" r="810.75" fill="url(#_Radial1)"/>
  <circle cx="1066.92" cy="1081.56" r="810.75" fill="url(#_Radial2)"/>
  <clipPath id="a">
    <path d="M704.417 631.228h802.279v900H704.417z"/>
  </clipPath>
  <g clip-path="url(#a)" fill="#fff">
    <path d="M973.361 791.378c41.445-3.762 73.645-38.862 73.645-79.918 0-44.19-36.664-80.232-81.616-80.232s-81.614 36.042-81.614 80.232c0 13.476 3.825 27.265 10.202 38.862l29.08 402.263 299.507.079 122.845 282.953 161.286-62.18-24.976-58.463-90.262 32.03-118.86-269.757-278.476 1.84-3.823-50.944 201.595.079v-75.376l-209.285-.08-9.248-161.388z"/>
    <path d="M1274.59 1368.28c-50.551 98.233-156.355 162.95-269.213 162.95-165.761 0-300.956-132.903-300.956-295.853 0-114.413 70.537-220.734 175.792-267.865l6.812 87.379c-62.256 38.565-100.633 108.148-100.633 181.085 0 118.209 98.074 214.619 218.32 214.619 110.012 0 203.822-82.996 216.615-189.468l53.263 107.153z"/>
  </g>
  <clipPath id="b">
    <path d="M704.417 631.228h802.279v900H704.417z"/>
  </clipPath>
  <g clip-path="url(#b)" fill="#fff">
    <path d="M973.361 791.378c41.445-3.762 73.645-38.862 73.645-79.918 0-44.19-36.664-80.232-81.616-80.232s-81.614 36.042-81.614 80.232c0 13.476 3.825 27.265 10.202 38.862l29.08 402.263 299.507.079 122.845 282.953 161.286-62.18-24.976-58.463-90.262 32.03-118.86-269.757-278.476 1.84-3.823-50.944 201.595.079v-75.376l-209.285-.08-9.248-161.388z"/>
    <path d="M1274.59 1368.28c-50.551 98.233-156.355 162.95-269.213 162.95-165.761 0-300.956-132.903-300.956-295.853 0-114.413 70.537-220.734 175.792-267.865l6.812 87.379c-62.256 38.565-100.633 108.148-100.633 181.085 0 118.209 98.074 214.619 218.32 214.619 110.012 0 203.822-82.996 216.615-189.468l53.263 107.153z"/>
  </g>
  <defs>
    <radialGradient id="_Radial1" cx="0" cy="0" r="1" gradientUnits="userSpaceOnUse" gradientTransform="translate(756.462 631.228) scale(1164.03)">
      <stop offset="0" stop-color="#6fd584"/>
      <stop offset="1" stop-color="#00571d"/>
    </radialGradient>
    <radialGradient id="_Radial2" cx="0" cy="0" r="1" gradientUnits="userSpaceOnUse" gradientTransform="translate(756.462 631.228) scale(1164.03)">
      <stop offset="0" stop-color="#6fd584"/>
      <stop offset="1" stop-color="#00571d"/>
    </radialGradient>
  </defs>
</svg>
