<?xml version="1.0" encoding="UTF-8" standalone="no"?><!DOCTYPE svg PUBLIC "-//W3C//DTD SVG 1.1//EN" "http://www.w3.org/Graphics/SVG/1.1/DTD/svg11.dtd"><svg width="100%" height="100%" viewBox="0 0 2164 2164" version="1.1" xmlns="http://www.w3.org/2000/svg" xmlns:xlink="http://www.w3.org/1999/xlink" xml:space="preserve" xmlns:serif="http://www.serif.com/" style="fill-rule:evenodd;clip-rule:evenodd;stroke-linejoin:round;stroke-miterlimit:1.41421;"><g><circle cx="1089.69" cy="1061.39" r="794.692" style="fill:#c63021;"/><path d="M1082.66,753.741c0,-134.679 -109.342,-244.024 -244.024,-244.024c-134.678,0 -244.023,109.345 -244.023,244.024l0,68.841c0,134.682 109.345,244.024 244.023,244.024c134.682,0 244.024,-109.342 244.024,-244.024l0,-68.841Z"/><path d="M1082.66,753.741c0,-134.679 -109.342,-244.024 -244.024,-244.024c-134.678,0 -244.023,109.345 -244.023,244.024l0,68.841c0,134.682 109.345,244.024 244.023,244.024c134.682,0 244.024,-109.342 244.024,-244.024l0,-68.841Zm556.153,0c0,-134.679 -109.345,-244.024 -244.027,-244.024c-134.678,0 -244.023,109.345 -244.023,244.024l0,68.841c0,134.682 109.345,244.024 244.023,244.024c134.682,0 244.027,-109.342 244.027,-244.024l0,-68.841Z"/><path d="M745.606,846.471l0,-114.323c0,-60.919 41.68,-122.459 93.02,-122.459c51.341,0 93.023,61.54 93.023,122.459l0,114.323c0,60.916 -41.682,122.656 -93.023,122.656c-51.34,0 -93.02,-61.74 -93.02,-122.656Z" style="fill:#fff;"/><path d="M745.606,846.471l0,-114.323c0,-60.919 41.68,-122.459 93.02,-122.459c51.341,0 93.023,61.54 93.023,122.459l0,114.323c0,60.916 -41.682,122.656 -93.023,122.656c-51.34,0 -93.02,-61.74 -93.02,-122.656Zm556.152,0l0,-114.323c0,-60.919 41.683,-122.459 93.021,-122.459c51.34,0 93.023,61.54 93.023,122.459l0,114.323c0,60.916 -41.683,122.656 -93.023,122.656c-51.338,0 -93.021,-61.74 -93.021,-122.656Z" style="fill:#fff;"/><path d="M469.472,1109.74c0,0 429.619,335.723 698.724,319.212c78.221,-4.797 253.033,-29.209 541.312,-322.794c8.462,-8.618 -139.101,253.369 -139.101,253.369c0,0 -171.271,256.093 -388.33,253.52c-217.056,-2.572 -643.681,-397.18 -712.605,-503.307Z"/></g></svg>