<svg viewBox="0 0 2164 2164" xmlns="http://www.w3.org/2000/svg" xmlns:serif="http://www.serif.com/" fill-rule="evenodd" clip-rule="evenodd" stroke-linejoin="round" stroke-miterlimit="1.414">
  <path serif:id="Normal Nette Toilette" fill="none" d="M0 0h2163.11v2163.11H0z"/>
  <circle cx="1074.46" cy="1071.09" r="774.339" fill="url(#_Radial1)"/>
  <circle cx="1074.46" cy="1071.09" r="774.339" fill="url(#_Radial2)"/>
  <clipPath id="a">
    <path d="M570.716 574.989h984.568v955.093H570.716z"/>
  </clipPath>
  <g clip-path="url(#a)" fill="#fff">
    <ellipse cx="842.187" cy="652.775" rx="73.914" ry="77.719"/>
    <path d="M831.953 1223.11v270.221c-.387 49.094-69.889 49.094-70.503 0V1223.11h-90.972l97.795-361.092h-15.92l-56.858 205.655c-14.373 45.483-72.868 27.07-59.132-21.522l63.681-222.394c7.323-25.54 37.935-70.638 90.972-71.74h102.343c51.508 1.102 82.247 46.583 90.972 71.74l63.68 222.394c12.918 48.353-45.113 68.201-59.132 21.522l-56.857-205.655h-18.195l100.069 361.092H920.65v270.221c.728 49.094-68.501 48.855-68.229 0V1223.11h-20.468z" fill-rule="nonzero"/>
    <ellipse cx="1320.11" cy="652.775" rx="73.914" ry="77.719"/>
    <path d="M1241.64 752.016c-56.835 0-93.246 51.741-93.246 102.827v239.133c-.523 46.727 63.466 46.727 63.68 0V873.974h15.92v607.399c-.987 63.418 84.24 61.601 84.149 0v-353.918h13.646v353.918c1.114 61.601 86.787 63.418 86.423 0V873.974h15.92v220.002c-.75 47.086 62.907 47.086 63.68 0V854.843c-.909-51.086-38.685-101.911-95.52-102.827H1241.64z" fill-rule="nonzero"/>
  </g>
  <clipPath id="b">
    <path d="M570.716 574.989h984.568v955.093H570.716z"/>
  </clipPath>
  <g clip-path="url(#b)" fill="#fff">
    <ellipse cx="842.187" cy="652.775" rx="73.914" ry="77.719"/>
    <path d="M831.953 1223.11v270.221c-.387 49.094-69.889 49.094-70.503 0V1223.11h-90.972l97.795-361.092h-15.92l-56.858 205.655c-14.373 45.483-72.868 27.07-59.132-21.522l63.681-222.394c7.323-25.54 37.935-70.638 90.972-71.74h102.343c51.508 1.102 82.247 46.583 90.972 71.74l63.68 222.394c12.918 48.353-45.113 68.201-59.132 21.522l-56.857-205.655h-18.195l100.069 361.092H920.65v270.221c.728 49.094-68.501 48.855-68.229 0V1223.11h-20.468z" fill-rule="nonzero"/>
    <ellipse cx="1320.11" cy="652.775" rx="73.914" ry="77.719"/>
    <path d="M1241.64 752.016c-56.835 0-93.246 51.741-93.246 102.827v239.133c-.523 46.727 63.466 46.727 63.68 0V873.974h15.92v607.399c-.987 63.418 84.24 61.601 84.149 0v-353.918h13.646v353.918c1.114 61.601 86.787 63.418 86.423 0V873.974h15.92v220.002c-.75 47.086 62.907 47.086 63.68 0V854.843c-.909-51.086-38.685-101.911-95.52-102.827H1241.64z" fill-rule="nonzero"/>
  </g>
  <g>
    <circle cx="1594" cy="557.081" r="290.383" fill="#c63021"/>
    <path d="M1591.43 444.665c0-49.212-39.954-89.167-89.167-89.167-49.212 0-89.167 39.955-89.167 89.167v25.155c0 49.213 39.955 89.167 89.167 89.167 49.213 0 89.167-39.954 89.167-89.167v-25.155z"/>
    <path d="M1591.43 444.665c0-49.212-39.954-89.167-89.167-89.167-49.212 0-89.167 39.955-89.167 89.167v25.155c0 49.213 39.955 89.167 89.167 89.167 49.213 0 89.167-39.954 89.167-89.167v-25.155zM1794.65 444.665c0-49.212-39.955-89.167-89.168-89.167-49.212 0-89.167 39.955-89.167 89.167v25.155c0 49.213 39.955 89.167 89.167 89.167 49.213 0 89.168-39.954 89.168-89.167v-25.155z"/>
    <path d="M1468.27 478.549v-41.774c0-22.26 15.23-44.747 33.99-44.747s33.991 22.487 33.991 44.747v41.774c0 22.259-15.231 44.819-33.991 44.819-18.76 0-33.99-22.56-33.99-44.819z" fill="#fff"/>
    <path d="M1468.27 478.549v-41.774c0-22.26 15.23-44.747 33.99-44.747s33.991 22.487 33.991 44.747v41.774c0 22.259-15.231 44.819-33.991 44.819-18.76 0-33.99-22.56-33.99-44.819zM1671.49 478.549v-41.774c0-22.26 15.231-44.747 33.99-44.747 18.76 0 33.991 22.487 33.991 44.747v41.774c0 22.259-15.231 44.819-33.991 44.819-18.759 0-33.99-22.56-33.99-44.819z" fill="#fff"/>
    <path d="M1367.37 574.747s156.984 122.674 255.316 116.641c28.582-1.753 92.459-10.673 197.797-117.95 3.092-3.149-50.828 92.582-50.828 92.582s-62.583 93.577-141.897 92.637c-79.313-.94-235.203-145.131-260.388-183.91z"/>
    <g>
      <circle cx="1594" cy="557.081" r="290.383" fill="#c63021"/>
      <path d="M1591.43 444.665c0-49.212-39.954-89.167-89.167-89.167-49.212 0-89.167 39.955-89.167 89.167v25.155c0 49.213 39.955 89.167 89.167 89.167 49.213 0 89.167-39.954 89.167-89.167v-25.155z"/>
      <path d="M1591.43 444.665c0-49.212-39.954-89.167-89.167-89.167-49.212 0-89.167 39.955-89.167 89.167v25.155c0 49.213 39.955 89.167 89.167 89.167 49.213 0 89.167-39.954 89.167-89.167v-25.155zM1794.65 444.665c0-49.212-39.955-89.167-89.168-89.167-49.212 0-89.167 39.955-89.167 89.167v25.155c0 49.213 39.955 89.167 89.167 89.167 49.213 0 89.168-39.954 89.168-89.167v-25.155z"/>
      <path d="M1468.27 478.549v-41.774c0-22.26 15.23-44.747 33.99-44.747s33.991 22.487 33.991 44.747v41.774c0 22.259-15.231 44.819-33.991 44.819-18.76 0-33.99-22.56-33.99-44.819z" fill="#fff"/>
      <path d="M1468.27 478.549v-41.774c0-22.26 15.23-44.747 33.99-44.747s33.991 22.487 33.991 44.747v41.774c0 22.259-15.231 44.819-33.991 44.819-18.76 0-33.99-22.56-33.99-44.819zM1671.49 478.549v-41.774c0-22.26 15.231-44.747 33.99-44.747 18.76 0 33.991 22.487 33.991 44.747v41.774c0 22.259-15.231 44.819-33.991 44.819-18.759 0-33.99-22.56-33.99-44.819z" fill="#fff"/>
      <path d="M1367.37 574.747s156.984 122.674 255.316 116.641c28.582-1.753 92.459-10.673 197.797-117.95 3.092-3.149-50.828 92.582-50.828 92.582s-62.583 93.577-141.897 92.637c-79.313-.94-235.203-145.131-260.388-183.91z"/>
    </g>
  </g>
  <defs>
    <radialGradient id="_Radial1" cx="0" cy="0" r="1" gradientUnits="userSpaceOnUse" gradientTransform="translate(824.952 622.159) scale(1073.22)">
      <stop offset="0" stop-color="#5e7bcf"/>
      <stop offset="1" stop-color="#25357a"/>
    </radialGradient>
    <radialGradient id="_Radial2" cx="0" cy="0" r="1" gradientUnits="userSpaceOnUse" gradientTransform="translate(824.952 622.159) scale(1073.22)">
      <stop offset="0" stop-color="#5e7bcf"/>
      <stop offset="1" stop-color="#25357a"/>
    </radialGradient>
  </defs>
</svg>
