<svg viewBox="0 0 2164 2164" xmlns="http://www.w3.org/2000/svg" xmlns:serif="http://www.serif.com/" fill-rule="evenodd" clip-rule="evenodd" stroke-linejoin="round" stroke-miterlimit="1.414">
  <path serif:id="Normal new" fill="none" d="M0 0h2163.11v2163.11H0z"/>
  <path d="M1024.06 272.85c446.337-31.731 834.467 304.877 866.198 751.214 31.731 446.337-304.876 834.467-751.213 866.198-446.337 31.731-834.467-304.876-866.199-751.213-31.731-446.337 304.877-834.467 751.214-866.199z" fill="url(#_Radial1)"/>
  <path d="M1024.06 272.85c446.337-31.731 834.467 304.877 866.198 751.214 31.731 446.337-304.876 834.467-751.213 866.198-446.337 31.731-834.467-304.876-866.199-751.213-31.731-446.337 304.877-834.467 751.214-866.199z" fill="url(#_Radial2)"/>
  <clipPath id="a">
    <path d="M605.669 631.556h927.775v900H605.669z"/>
  </clipPath>
  <g clip-path="url(#a)" fill="#fff">
    <ellipse cx="861.481" cy="704.856" rx="69.651" ry="73.235"/>
    <path d="M851.837 1242.29v254.634c-.365 46.262-65.858 46.262-66.437 0V1242.29h-85.724l92.154-340.262h-15.002L723.25 1095.82c-13.544 42.859-68.665 25.508-55.72-20.281l60.006-209.565c6.901-24.067 35.748-66.563 85.725-67.602h96.44c48.537 1.039 77.503 43.896 85.724 67.602l60.007 209.565c12.173 45.564-42.511 64.267-55.721 20.281l-53.578-193.792h-17.144l94.296 340.262h-87.867v254.634c.686 46.262-64.551 46.037-64.293 0V1242.29h-19.288z" fill-rule="nonzero"/>
    <ellipse cx="1311.83" cy="704.856" rx="69.651" ry="73.235"/>
    <path d="M1237.9 798.372c-53.557 0-87.868 48.756-87.868 96.896v225.339c-.493 44.031 59.806 44.031 60.007 0V913.295h15.002v572.362c-.93 59.76 79.381 58.048 79.295 0v-333.502h12.858v333.502c1.051 58.048 81.781 59.76 81.438 0V913.295h15.002v207.312c-.707 44.369 59.279 44.369 60.007 0V895.268c-.857-48.14-36.454-96.033-90.01-96.896H1237.9z" fill-rule="nonzero"/>
  </g>
  <clipPath id="b">
    <path d="M605.669 631.556h927.775v900H605.669z"/>
  </clipPath>
  <g clip-path="url(#b)" fill="#fff">
    <ellipse cx="861.481" cy="704.856" rx="69.651" ry="73.235"/>
    <path d="M851.837 1242.29v254.634c-.365 46.262-65.858 46.262-66.437 0V1242.29h-85.724l92.154-340.262h-15.002L723.25 1095.82c-13.544 42.859-68.665 25.508-55.72-20.281l60.006-209.565c6.901-24.067 35.748-66.563 85.725-67.602h96.44c48.537 1.039 77.503 43.896 85.724 67.602l60.007 209.565c12.173 45.564-42.511 64.267-55.721 20.281l-53.578-193.792h-17.144l94.296 340.262h-87.867v254.634c.686 46.262-64.551 46.037-64.293 0V1242.29h-19.288z" fill-rule="nonzero"/>
    <ellipse cx="1311.83" cy="704.856" rx="69.651" ry="73.235"/>
    <path d="M1237.9 798.372c-53.557 0-87.868 48.756-87.868 96.896v225.339c-.493 44.031 59.806 44.031 60.007 0V913.295h15.002v572.362c-.93 59.76 79.381 58.048 79.295 0v-333.502h12.858v333.502c1.051 58.048 81.781 59.76 81.438 0V913.295h15.002v207.312c-.707 44.369 59.279 44.369 60.007 0V895.268c-.857-48.14-36.454-96.033-90.01-96.896H1237.9z" fill-rule="nonzero"/>
  </g>
  <defs>
    <radialGradient id="_Radial1" cx="0" cy="0" r="1" gradientUnits="userSpaceOnUse" gradientTransform="translate(787.641 631.228) scale(1123.68)">
      <stop offset="0" stop-color="#5e7bcf"/>
      <stop offset="1" stop-color="#25357a"/>
    </radialGradient>
    <radialGradient id="_Radial2" cx="0" cy="0" r="1" gradientUnits="userSpaceOnUse" gradientTransform="translate(787.641 631.228) scale(1123.68)">
      <stop offset="0" stop-color="#5e7bcf"/>
      <stop offset="1" stop-color="#25357a"/>
    </radialGradient>
  </defs>
</svg>
