<svg viewBox="0 0 2164 2164" xmlns="http://www.w3.org/2000/svg" fill-rule="evenodd" clip-rule="evenodd" stroke-linejoin="round" stroke-miterlimit="1.414">
  <path fill="none" d="M0 0h2163.11v2163.11H0z"/>
  <circle cx="1080.82" cy="1095.84" r="810.75" fill="url(#_Radial1)"/>
  <circle cx="1080.82" cy="1095.84" r="810.75" fill="url(#_Radial2)"/>
  <g fill="#fff" fill-rule="nonzero">
    <path d="M679.676 1362.06c.001.126 1.341 251.124 0 292.31-93.365-44.736-118.086-70.461-118.086-70.461V1362.06h118.086zm674.797-824.725v-.021h164.05c30.388 34.831 57.786 75.165 81.516 120h-245.566v292.387c-.078 3.347-.039 4.194-.349 7.52-1.627 17.473-9.218 33.7-20.185 43.14-5.481 4.718-11.731 7.766-18.16 8.867-2.453.421-3.077.368-5.544.473h-292.258v292.359c-.105 3.346-.053 4.193-.473 7.52-1.575 12.467-7.185 24.391-15.789 33.552-9.476 10.092-22.516 16.724-36.218 18.454-3.327.421-4.173.368-7.52.474H561.59v-120h336.387V889.693h120V889.701h248.019V537.335h88.477zm0 0v0z"/>
    <path d="M679.676 1362.06c.001.126 1.341 251.124 0 292.31-93.365-44.736-118.086-70.461-118.086-70.461V1362.06h118.086zm674.797-824.725v-.021h164.05c30.388 34.831 57.786 75.165 81.516 120h-245.566v292.387c-.078 3.347-.039 4.194-.349 7.52-1.627 17.473-9.218 33.7-20.185 43.14-5.481 4.718-11.731 7.766-18.16 8.867-2.453.421-3.077.368-5.544.473h-292.258v292.359c-.105 3.346-.053 4.193-.473 7.52-1.575 12.467-7.185 24.391-15.789 33.552-9.476 10.092-22.516 16.724-36.218 18.454-3.327.421-4.173.368-7.52.474H561.59v-120h336.387V889.693h120V889.701h248.019V537.335h88.477zm0 0v0z"/>
  </g>
  <defs>
    <radialGradient id="_Radial1" cx="0" cy="0" r="1" gradientUnits="userSpaceOnUse" gradientTransform="translate(750.881 497.585) scale(1578.27)">
      <stop offset="0" stop-color="#8e95bf"/>
      <stop offset="1" stop-color="#4f69ff"/>
    </radialGradient>
    <radialGradient id="_Radial2" cx="0" cy="0" r="1" gradientUnits="userSpaceOnUse" gradientTransform="translate(750.881 497.585) scale(1578.27)">
      <stop offset="0" stop-color="#8e95bf"/>
      <stop offset="1" stop-color="#4f69ff"/>
    </radialGradient>
  </defs>
</svg>
