<svg viewBox="0 0 2164 2164" xmlns="http://www.w3.org/2000/svg" fill-rule="evenodd" clip-rule="evenodd" stroke-linejoin="round" stroke-miterlimit="1.414">
  <path fill="none" d="M0 0h2163.11v2163.11H0z"/>
  <circle cx="1080.82" cy="1095.84" r="810.75" fill="url(#_Radial1)"/>
  <circle cx="1080.82" cy="1095.84" r="810.75" fill="url(#_Radial2)"/>
  <g fill="#fff">
    <path d="M941.336 877.366h140.22V978.834 877.366h140.221l236.936 236.936a52.672 52.672 0 0 1 0 74.491c-20.57 20.57-53.921 20.57-74.491 0L1242 1046.571v163.406H921.113v-163.406l-142.222 142.222c-20.57 20.57-53.921 20.57-74.491 0a52.675 52.675 0 0 1 0-74.491l236.936-236.936z"/>
    <path d="M941.336 877.366h140.22V978.834 877.366h140.221l236.936 236.936a52.672 52.672 0 0 1 0 74.491c-20.57 20.57-53.921 20.57-74.491 0L1242 1046.571v163.406H921.113v-163.406l-142.222 142.222c-20.57 20.57-53.921 20.57-74.491 0a52.675 52.675 0 0 1 0-74.491l236.936-236.936zM921.113 1275.44l-113.822 113.822c-23.431 23.431-23.431 61.421 0 84.853l147.136 147.136c20.064 20.063 52.594 20.063 72.657 0 20.064-20.064 20.064-52.594 0-72.658l-95.821-95.821 83.655-83.655-93.805-93.677z"/>
    <path d="M921.113 1275.44l-113.822 113.822c-23.431 23.431-23.431 61.421 0 84.853l147.136 147.136c20.064 20.063 52.594 20.063 72.657 0 20.064-20.064 20.064-52.594 0-72.658l-95.821-95.821 83.655-83.655-93.805-93.677zM1241.35 1275.44l113.822 113.822c23.431 23.431 23.431 61.421 0 84.853l-147.136 147.136c-20.064 20.063-52.594 20.063-72.658 0-20.064-20.064-20.064-52.594 0-72.658l95.821-95.821-83.655-83.655 93.806-93.677z"/>
    <path d="M1241.35 1275.44l113.822 113.822c23.431 23.431 23.431 61.421 0 84.853l-147.136 147.136c-20.064 20.063-52.594 20.063-72.658 0-20.064-20.064-20.064-52.594 0-72.658l95.821-95.821-83.655-83.655 93.806-93.677z"/>
    <circle cx="1075.13" cy="688.117" r="154.016"/>
    <circle cx="1075.13" cy="688.117" r="154.016"/>
  </g>
  <defs>
    <radialGradient id="_Radial1" cx="0" cy="0" r="1" gradientUnits="userSpaceOnUse" gradientTransform="translate(750.881 497.585) scale(1578.27)">
      <stop offset="0" stop-color="#8e95bf"/>
      <stop offset="1" stop-color="#4f69ff"/>
    </radialGradient>
    <radialGradient id="_Radial2" cx="0" cy="0" r="1" gradientUnits="userSpaceOnUse" gradientTransform="translate(750.881 497.585) scale(1578.27)">
      <stop offset="0" stop-color="#8e95bf"/>
      <stop offset="1" stop-color="#4f69ff"/>
    </radialGradient>
  </defs>
</svg>
